<svg xmlns="http://www.w3.org/2000/svg" xmlns:xlink="http://www.w3.org/1999/xlink" width="500" zoomAndPan="magnify" viewBox="0 0 375 374.999991" height="500" preserveAspectRatio="xMidYMid meet" version="1.0"><defs><clipPath id="07bf3bde90"><path d="M 163.757812 213.027344 L 337.5 213.027344 L 337.5 273.71875 L 163.757812 273.71875 Z M 163.757812 213.027344 " clip-rule="nonzero"/></clipPath><clipPath id="64aea8c4c3"><path d="M 175.757812 209.28125 L 341.882812 209.28125 L 341.882812 234.925781 L 175.757812 234.925781 Z M 175.757812 209.28125 " clip-rule="nonzero"/></clipPath><clipPath id="9722c16787"><path d="M 331.285156 239.621094 L 355.476562 239.621094 L 355.476562 273.71875 L 331.285156 273.71875 Z M 331.285156 239.621094 " clip-rule="nonzero"/></clipPath><clipPath id="22d95be73e"><path d="M 322.144531 226.324219 L 346.335938 226.324219 L 346.335938 260.421875 L 322.144531 260.421875 Z M 322.144531 226.324219 " clip-rule="nonzero"/></clipPath><clipPath id="a8687d9817"><path d="M 302.609375 140.925781 L 341.882812 140.925781 L 341.882812 184.9375 L 302.609375 184.9375 Z M 302.609375 140.925781 " clip-rule="nonzero"/></clipPath><clipPath id="f0720243cc"><path d="M 294.808594 178.09375 L 337.5 178.09375 L 337.5 222.101562 L 294.808594 222.101562 Z M 294.808594 178.09375 " clip-rule="nonzero"/></clipPath><clipPath id="cf046b10dc"><path d="M 288.597656 195.609375 L 331.285156 195.609375 L 331.285156 217.410156 L 288.597656 217.410156 Z M 288.597656 195.609375 " clip-rule="nonzero"/></clipPath><clipPath id="5cd2907320"><path d="M 171.949219 269.421875 L 322.144531 269.421875 L 322.144531 309.609375 L 171.949219 309.609375 Z M 171.949219 269.421875 " clip-rule="nonzero"/></clipPath><clipPath id="d867f0d309"><path d="M 316.15625 258.925781 L 330.335938 258.925781 L 330.335938 299.117188 L 316.15625 299.117188 Z M 316.15625 258.925781 " clip-rule="nonzero"/></clipPath><clipPath id="8bd8109fca"><path d="M 183.980469 308.117188 L 327.089844 308.117188 L 327.089844 324.816406 L 183.980469 324.816406 Z M 183.980469 308.117188 " clip-rule="nonzero"/></clipPath><clipPath id="437f226e97"><path d="M 195.980469 320.117188 L 316.15625 320.117188 L 316.15625 337.5 L 195.980469 337.5 Z M 195.980469 320.117188 " clip-rule="nonzero"/></clipPath><clipPath id="be02d829ee"><path d="M 216.628906 332.867188 L 315.40625 332.867188 L 315.40625 349.566406 L 216.628906 349.566406 Z M 216.628906 332.867188 " clip-rule="nonzero"/></clipPath><clipPath id="6eaaca93a9"><path d="M 239.203125 344.117188 L 312.507812 344.117188 L 312.507812 360.816406 L 239.203125 360.816406 Z M 239.203125 344.117188 " clip-rule="nonzero"/></clipPath><clipPath id="8915216b19"><path d="M 270.683594 356.117188 L 305.785156 356.117188 L 305.785156 368.738281 L 270.683594 368.738281 Z M 270.683594 356.117188 " clip-rule="nonzero"/></clipPath></defs><g clip-path="url(#07bf3bde90)"><path fill="#7939f9" d="M 163.757812 213.027344 L 337.535156 213.027344 L 337.535156 273.71875 L 163.757812 273.71875 Z M 163.757812 213.027344 " fill-opacity="1" fill-rule="nonzero"/></g><g clip-path="url(#64aea8c4c3)"><path fill="#7939f9" d="M 175.757812 209.28125 L 341.847656 209.28125 L 341.847656 234.925781 L 175.757812 234.925781 Z M 175.757812 209.28125 " fill-opacity="1" fill-rule="nonzero"/></g><g clip-path="url(#9722c16787)"><path fill="#7939f9" d="M 331.285156 239.621094 L 355.476562 239.621094 L 355.476562 273.730469 L 331.285156 273.730469 Z M 331.285156 239.621094 " fill-opacity="1" fill-rule="nonzero"/></g><g clip-path="url(#22d95be73e)"><path fill="#7939f9" d="M 322.144531 226.324219 L 346.335938 226.324219 L 346.335938 260.433594 L 322.144531 260.433594 Z M 322.144531 226.324219 " fill-opacity="1" fill-rule="nonzero"/></g><g clip-path="url(#a8687d9817)"><path fill="#7939f9" d="M 302.609375 140.925781 L 341.882812 140.925781 L 341.882812 184.957031 L 302.609375 184.957031 Z M 302.609375 140.925781 " fill-opacity="1" fill-rule="nonzero"/></g><g clip-path="url(#f0720243cc)"><path fill="#7939f9" d="M 294.808594 178.09375 L 337.5 178.09375 L 337.5 222.117188 L 294.808594 222.117188 Z M 294.808594 178.09375 " fill-opacity="1" fill-rule="nonzero"/></g><g clip-path="url(#cf046b10dc)"><path fill="#7939f9" d="M 288.597656 195.609375 L 331.261719 195.609375 L 331.261719 217.410156 L 288.597656 217.410156 Z M 288.597656 195.609375 " fill-opacity="1" fill-rule="nonzero"/></g><g clip-path="url(#5cd2907320)"><path fill="#7939f9" d="M 171.949219 269.421875 L 322.191406 269.421875 L 322.191406 309.609375 L 171.949219 309.609375 Z M 171.949219 269.421875 " fill-opacity="1" fill-rule="nonzero"/></g><g clip-path="url(#d867f0d309)"><path fill="#7939f9" d="M 316.15625 258.925781 L 330.335938 258.925781 L 330.335938 299.140625 L 316.15625 299.140625 Z M 316.15625 258.925781 " fill-opacity="1" fill-rule="nonzero"/></g><g clip-path="url(#8bd8109fca)"><path fill="#7939f9" d="M 183.980469 308.117188 L 327.105469 308.117188 L 327.105469 324.816406 L 183.980469 324.816406 Z M 183.980469 308.117188 " fill-opacity="1" fill-rule="nonzero"/></g><g clip-path="url(#437f226e97)"><path fill="#7939f9" d="M 195.980469 320.117188 L 316.179688 320.117188 L 316.179688 337.5 L 195.980469 337.5 Z M 195.980469 320.117188 " fill-opacity="1" fill-rule="nonzero"/></g><g clip-path="url(#be02d829ee)"><path fill="#7939f9" d="M 216.628906 332.867188 L 315.390625 332.867188 L 315.390625 349.566406 L 216.628906 349.566406 Z M 216.628906 332.867188 " fill-opacity="1" fill-rule="nonzero"/></g><g clip-path="url(#6eaaca93a9)"><path fill="#7939f9" d="M 239.203125 344.117188 L 312.523438 344.117188 L 312.523438 360.816406 L 239.203125 360.816406 Z M 239.203125 344.117188 " fill-opacity="1" fill-rule="nonzero"/></g><g clip-path="url(#8915216b19)"><path fill="#7939f9" d="M 270.683594 356.117188 L 305.789062 356.117188 L 305.789062 368.738281 L 270.683594 368.738281 Z M 270.683594 356.117188 " fill-opacity="1" fill-rule="nonzero"/></g><path fill="#000000" d="M 183.164062 81.191406 C 184.332031 82.359375 185.792969 82.945312 187.253906 82.945312 L 222.3125 82.945312 C 223.769531 82.945312 225.230469 82.359375 226.402344 81.191406 L 236.039062 71.554688 C 238.960938 73.015625 242.175781 73.890625 245.679688 73.890625 C 257.074219 73.890625 266.128906 64.835938 266.128906 53.445312 C 266.128906 42.054688 257.074219 33.003906 245.679688 33.003906 C 234.289062 33.003906 225.230469 42.054688 225.230469 53.445312 C 225.230469 56.949219 226.109375 60.164062 227.570312 63.085938 L 219.972656 71.261719 L 189.59375 71.261719 L 169.726562 51.402344 L 169.726562 12.851562 L 186.671875 12.851562 C 187.253906 12.851562 187.839844 13.140625 188.421875 12.851562 C 240.421875 10.804688 293.882812 34.460938 319.882812 82.945312 L 300.308594 82.945312 C 297.679688 74.472656 290.085938 68.339844 280.738281 68.339844 C 269.34375 68.339844 260.289062 77.394531 260.289062 88.785156 C 260.289062 98.128906 266.421875 105.722656 274.894531 108.351562 L 274.894531 161.800781 L 231.074219 161.800781 C 227.859375 161.800781 225.230469 164.425781 225.230469 167.640625 L 225.230469 199.765625 L 213.546875 199.765625 L 213.546875 164.71875 C 213.546875 162.96875 212.671875 161.507812 211.5 160.339844 L 193.097656 144.566406 L 193.097656 106.308594 L 217.050781 106.308594 L 224.941406 114.195312 C 223.480469 117.113281 222.601562 120.328125 222.601562 123.832031 C 222.601562 135.222656 231.660156 144.277344 243.050781 144.277344 C 254.445312 144.277344 263.5 135.222656 263.5 123.832031 C 263.5 112.441406 254.445312 103.386719 243.050781 103.386719 C 239.546875 103.386719 236.332031 104.265625 233.410156 105.722656 L 223.769531 96.085938 C 222.3125 95.210938 220.851562 94.625 219.390625 94.625 L 187.253906 94.625 C 184.042969 94.625 181.410156 97.253906 181.410156 100.46875 L 181.410156 147.195312 C 181.410156 148.949219 182.289062 150.410156 183.457031 151.578125 L 201.863281 167.347656 L 201.863281 199.765625 L 178.492188 199.765625 C 177.03125 199.765625 175.570312 200.351562 174.402344 201.519531 L 127.660156 248.246094 C 126.492188 249.414062 125.90625 250.875 125.90625 252.335938 L 125.90625 299.941406 C 117.433594 302.570312 111.300781 310.164062 111.300781 319.507812 C 111.300781 330.898438 120.355469 339.953125 131.75 339.953125 C 143.144531 339.953125 152.199219 330.898438 152.199219 319.507812 C 152.199219 310.164062 146.0625 302.570312 137.59375 299.941406 L 137.59375 254.671875 L 180.828125 211.449219 L 286.578125 211.449219 C 288.917969 211.449219 290.960938 210.28125 291.839844 208.234375 L 309.367188 173.1875 C 309.660156 172.3125 309.949219 171.4375 309.949219 170.5625 L 309.949219 150.117188 L 335.65625 150.117188 L 335.65625 174.066406 L 328.0625 190.710938 C 327.476562 192.171875 327.476562 193.632812 327.769531 195.09375 L 353.476562 263.726562 C 353.476562 264.019531 353.476562 264.3125 353.476562 264.601562 C 353.1875 264.894531 353.1875 264.894531 352.894531 264.894531 L 327.769531 264.894531 C 326.019531 264.894531 324.265625 265.769531 323.097656 267.230469 C 321.929688 268.691406 321.636719 270.734375 322.21875 272.488281 L 329.230469 292.933594 L 315.792969 297.605469 C 314.039062 298.1875 312.578125 299.648438 311.996094 301.402344 C 311.410156 303.152344 311.703125 305.199219 312.871094 306.660156 L 321.636719 318.632812 L 314.039062 324.472656 C 312.578125 325.640625 311.703125 327.394531 311.703125 329.148438 L 311.703125 344.042969 C 311.703125 350.757812 308.199219 357.183594 302.355469 360.398438 C 299.726562 362.148438 296.511719 363.027344 293.300781 363.027344 C 269.050781 363.316406 175.570312 332.652344 175.570312 281.542969 L 175.570312 269.277344 C 175.570312 266.0625 172.941406 263.433594 169.726562 263.433594 C 166.511719 263.433594 163.882812 266.0625 163.882812 269.277344 L 163.882812 281.542969 C 163.882812 343.75 268.757812 375 293.589844 375 C 298.847656 375 304.109375 373.539062 308.488281 370.910156 C 317.839844 365.363281 323.386719 355.433594 323.386719 344.335938 L 323.386719 332.066406 L 333.027344 324.472656 C 335.367188 322.429688 335.949219 318.925781 334.199219 316.589844 L 326.894531 306.367188 L 338.578125 302.277344 C 341.5 301.109375 343.253906 297.898438 342.085938 294.976562 L 335.949219 276.578125 L 352.894531 276.578125 C 356.984375 276.578125 360.78125 274.53125 363.117188 271.320312 C 365.457031 267.816406 366.039062 263.433594 364.578125 259.636719 L 339.746094 193.339844 L 346.757812 177.863281 C 347.050781 176.984375 347.34375 176.402344 347.34375 175.527344 L 347.34375 143.398438 C 345.589844 99.300781 327.476562 62.207031 295.34375 35.921875 C 266.128906 11.972656 228.445312 0 188.421875 1.167969 C 188.132812 1.167969 187.546875 1.167969 187.253906 1.167969 L 163.882812 1.167969 C 160.671875 1.167969 158.042969 3.796875 158.042969 7.007812 L 158.042969 53.738281 C 158.042969 55.199219 158.625 56.660156 159.792969 57.828125 Z M 245.679688 44.976562 C 250.648438 44.976562 254.445312 48.773438 254.445312 53.738281 C 254.445312 58.703125 250.648438 62.5 245.679688 62.5 C 240.714844 62.5 236.917969 58.703125 236.917969 53.738281 C 236.917969 48.773438 240.714844 44.976562 245.679688 44.976562 Z M 242.761719 115.070312 C 247.726562 115.070312 251.523438 118.867188 251.523438 123.832031 C 251.523438 128.796875 247.726562 132.59375 242.761719 132.59375 C 237.792969 132.59375 233.996094 128.796875 233.996094 123.832031 C 233.996094 118.867188 237.792969 115.070312 242.761719 115.070312 Z M 140.511719 319.507812 C 140.511719 324.472656 136.714844 328.269531 131.75 328.269531 C 126.785156 328.269531 122.984375 324.472656 122.984375 319.507812 C 122.984375 314.542969 126.785156 310.746094 131.75 310.746094 C 136.714844 310.746094 140.511719 314.542969 140.511719 319.507812 Z M 271.972656 88.785156 C 271.972656 83.820312 275.769531 80.023438 280.738281 80.023438 C 285.703125 80.023438 289.5 83.820312 289.5 88.785156 C 289.5 93.75 285.703125 97.546875 280.738281 97.546875 C 275.769531 97.546875 271.972656 93.75 271.972656 88.785156 Z M 335.367188 138.433594 L 304.109375 138.433594 C 300.894531 138.433594 298.265625 141.0625 298.265625 144.277344 L 298.265625 169.101562 L 283.074219 199.765625 L 236.917969 199.765625 L 236.917969 173.480469 L 280.738281 173.480469 C 283.949219 173.480469 286.578125 170.851562 286.578125 167.640625 L 286.578125 108.351562 C 293.300781 106.308594 298.265625 101.050781 300.308594 94.625 L 325.433594 94.625 C 330.691406 107.769531 334.199219 122.371094 335.367188 138.433594 Z M 335.367188 138.433594 " fill-opacity="1" fill-rule="nonzero"/><path fill="#000000" d="M 26.582031 41.179688 L 26.582031 91.707031 C 26.582031 93.457031 27.457031 95.210938 28.625 96.378906 L 60.761719 122.078125 C 61.054688 122.371094 61.34375 122.371094 61.636719 122.664062 L 61.636719 185.164062 C 61.636719 186.625 62.222656 187.792969 63.097656 188.960938 L 79.164062 207.652344 L 79.164062 256.132812 C 70.695312 258.761719 64.558594 266.355469 64.558594 275.699219 C 64.558594 287.089844 73.613281 296.144531 85.007812 296.144531 C 96.402344 296.144531 105.457031 287.089844 105.457031 275.699219 C 105.457031 266.355469 99.324219 258.761719 90.851562 256.132812 L 90.851562 205.609375 C 90.851562 204.148438 90.265625 202.980469 89.390625 201.8125 L 73.324219 183.121094 L 73.324219 54.90625 L 102.535156 71.554688 L 102.535156 83.527344 C 94.0625 86.15625 87.929688 93.75 87.929688 103.097656 C 87.929688 114.484375 96.984375 123.539062 108.378906 123.539062 C 119.773438 123.539062 128.828125 114.484375 128.828125 103.097656 C 128.828125 93.75 122.695312 86.15625 114.222656 83.527344 L 114.222656 68.339844 C 114.222656 66.296875 113.054688 64.253906 111.300781 63.375 L 70.402344 40.011719 C 68.648438 38.84375 66.3125 38.84375 64.558594 40.011719 C 62.804688 41.179688 61.636719 42.933594 61.636719 44.976562 L 61.636719 107.769531 L 38.265625 88.785156 L 38.265625 41.179688 C 46.738281 38.550781 52.875 30.957031 52.875 21.613281 C 52.875 10.222656 43.816406 1.167969 32.425781 1.167969 C 21.03125 1.167969 11.976562 10.222656 11.976562 21.613281 C 11.976562 30.957031 18.109375 38.550781 26.582031 41.179688 Z M 93.773438 275.699219 C 93.773438 280.664062 89.972656 284.460938 85.007812 284.460938 C 80.042969 284.460938 76.246094 280.664062 76.246094 275.699219 C 76.246094 270.734375 80.042969 266.9375 85.007812 266.9375 C 89.972656 266.9375 93.773438 270.734375 93.773438 275.699219 Z M 117.144531 103.386719 C 117.144531 108.351562 113.34375 112.148438 108.378906 112.148438 C 103.414062 112.148438 99.613281 108.351562 99.613281 103.386719 C 99.613281 98.421875 103.414062 94.625 108.378906 94.625 C 113.34375 94.625 117.144531 98.421875 117.144531 103.386719 Z M 32.425781 12.851562 C 37.390625 12.851562 41.1875 16.648438 41.1875 21.613281 C 41.1875 26.578125 37.390625 30.375 32.425781 30.375 C 27.457031 30.375 23.660156 26.578125 23.660156 21.613281 C 23.660156 16.648438 27.457031 12.851562 32.425781 12.851562 Z M 32.425781 12.851562 " fill-opacity="1" fill-rule="nonzero"/><path fill="#000000" d="M 158.042969 94.042969 L 158.042969 179.613281 L 114.222656 223.421875 L 114.222656 181.367188 C 122.695312 178.738281 128.828125 171.144531 128.828125 161.800781 C 128.828125 150.410156 119.773438 141.355469 108.378906 141.355469 C 96.984375 141.355469 87.929688 150.410156 87.929688 161.800781 C 87.929688 171.144531 94.0625 178.738281 102.535156 181.367188 L 102.535156 237.734375 C 102.535156 240.070312 103.996094 242.113281 106.042969 242.992188 C 106.917969 243.574219 107.503906 243.574219 108.378906 243.574219 C 109.839844 243.574219 111.300781 242.992188 112.46875 241.824219 L 167.972656 186.332031 C 169.140625 185.164062 169.726562 183.703125 169.726562 182.242188 L 169.726562 91.707031 C 169.726562 90.246094 169.140625 88.785156 167.972656 87.617188 L 146.355469 66.003906 L 146.355469 21.613281 C 146.355469 18.398438 143.726562 15.769531 140.511719 15.769531 C 137.300781 15.769531 134.671875 18.398438 134.671875 21.613281 L 134.671875 68.339844 C 134.671875 69.800781 135.253906 71.261719 136.421875 72.429688 Z M 108.378906 170.5625 C 103.414062 170.5625 99.613281 166.765625 99.613281 161.800781 C 99.613281 156.835938 103.414062 153.039062 108.378906 153.039062 C 113.34375 153.039062 117.144531 156.835938 117.144531 161.800781 C 117.144531 166.765625 113.34375 170.5625 108.378906 170.5625 Z M 108.378906 170.5625 " fill-opacity="1" fill-rule="nonzero"/><path fill="#000000" d="M 9.054688 234.8125 C 9.054688 246.203125 18.109375 255.257812 29.503906 255.257812 C 40.894531 255.257812 49.953125 246.203125 49.953125 234.8125 C 49.953125 225.46875 43.816406 217.875 35.347656 215.246094 L 35.347656 175.527344 C 43.816406 172.898438 49.953125 165.304688 49.953125 155.957031 C 49.953125 144.566406 40.894531 135.515625 29.503906 135.515625 C 18.109375 135.515625 9.054688 144.566406 9.054688 155.957031 C 9.054688 165.304688 15.1875 172.898438 23.660156 175.527344 L 23.660156 215.246094 C 15.1875 217.875 9.054688 225.46875 9.054688 234.8125 Z M 20.738281 155.957031 C 20.738281 150.992188 24.535156 147.195312 29.503906 147.195312 C 34.46875 147.195312 38.265625 150.992188 38.265625 155.957031 C 38.265625 160.921875 34.46875 164.71875 29.503906 164.71875 C 24.535156 164.71875 20.738281 160.921875 20.738281 155.957031 Z M 29.503906 226.050781 C 34.46875 226.050781 38.265625 229.847656 38.265625 234.8125 C 38.265625 239.777344 34.46875 243.574219 29.503906 243.574219 C 24.535156 243.574219 20.738281 239.777344 20.738281 234.8125 C 20.738281 229.847656 24.535156 226.050781 29.503906 226.050781 Z M 29.503906 226.050781 " fill-opacity="1" fill-rule="nonzero"/></svg>