<svg xmlns="http://www.w3.org/2000/svg" xmlns:xlink="http://www.w3.org/1999/xlink" width="500" zoomAndPan="magnify" viewBox="0 0 375 374.999991" height="500" preserveAspectRatio="xMidYMid meet" version="1.0"><defs><clipPath id="3f9ffb98e5"><path d="M 163.757812 213.027344 L 337.5 213.027344 L 337.5 273.71875 L 163.757812 273.71875 Z M 163.757812 213.027344 " clip-rule="nonzero"/></clipPath><clipPath id="09da58b685"><path d="M 175.757812 209.28125 L 341.882812 209.28125 L 341.882812 234.925781 L 175.757812 234.925781 Z M 175.757812 209.28125 " clip-rule="nonzero"/></clipPath><clipPath id="48335adc3c"><path d="M 331.285156 239.621094 L 355.476562 239.621094 L 355.476562 273.71875 L 331.285156 273.71875 Z M 331.285156 239.621094 " clip-rule="nonzero"/></clipPath><clipPath id="c4112fba17"><path d="M 322.144531 226.324219 L 346.335938 226.324219 L 346.335938 260.421875 L 322.144531 260.421875 Z M 322.144531 226.324219 " clip-rule="nonzero"/></clipPath><clipPath id="e0c347ac1d"><path d="M 302.609375 140.925781 L 341.882812 140.925781 L 341.882812 184.9375 L 302.609375 184.9375 Z M 302.609375 140.925781 " clip-rule="nonzero"/></clipPath><clipPath id="1212950594"><path d="M 294.808594 178.09375 L 337.5 178.09375 L 337.5 222.101562 L 294.808594 222.101562 Z M 294.808594 178.09375 " clip-rule="nonzero"/></clipPath><clipPath id="a52feccc02"><path d="M 288.597656 195.609375 L 331.285156 195.609375 L 331.285156 217.410156 L 288.597656 217.410156 Z M 288.597656 195.609375 " clip-rule="nonzero"/></clipPath><clipPath id="c1141dd1bd"><path d="M 171.949219 269.421875 L 322.144531 269.421875 L 322.144531 309.609375 L 171.949219 309.609375 Z M 171.949219 269.421875 " clip-rule="nonzero"/></clipPath><clipPath id="56905c1241"><path d="M 316.15625 258.925781 L 330.335938 258.925781 L 330.335938 299.117188 L 316.15625 299.117188 Z M 316.15625 258.925781 " clip-rule="nonzero"/></clipPath><clipPath id="8f31d69099"><path d="M 183.980469 308.117188 L 327.089844 308.117188 L 327.089844 324.816406 L 183.980469 324.816406 Z M 183.980469 308.117188 " clip-rule="nonzero"/></clipPath><clipPath id="1d1b123f9b"><path d="M 195.980469 320.117188 L 316.15625 320.117188 L 316.15625 337.5 L 195.980469 337.5 Z M 195.980469 320.117188 " clip-rule="nonzero"/></clipPath><clipPath id="fe95ecd087"><path d="M 216.628906 332.867188 L 315.40625 332.867188 L 315.40625 349.566406 L 216.628906 349.566406 Z M 216.628906 332.867188 " clip-rule="nonzero"/></clipPath><clipPath id="5cf9a8e7ef"><path d="M 239.203125 344.117188 L 312.507812 344.117188 L 312.507812 360.816406 L 239.203125 360.816406 Z M 239.203125 344.117188 " clip-rule="nonzero"/></clipPath><clipPath id="cc61f24522"><path d="M 270.683594 356.117188 L 305.785156 356.117188 L 305.785156 368.738281 L 270.683594 368.738281 Z M 270.683594 356.117188 " clip-rule="nonzero"/></clipPath></defs><rect x="-37.5" width="450" fill="#ffffff" y="-37.499999" height="449.999989" fill-opacity="1"/><rect x="-37.5" width="450" fill="#d9d9d9" y="-37.499999" height="449.999989" fill-opacity="1"/><g clip-path="url(#3f9ffb98e5)"><path fill="#7939f9" d="M 163.757812 213.027344 L 337.535156 213.027344 L 337.535156 273.71875 L 163.757812 273.71875 Z M 163.757812 213.027344 " fill-opacity="1" fill-rule="nonzero"/></g><g clip-path="url(#09da58b685)"><path fill="#7939f9" d="M 175.757812 209.28125 L 341.847656 209.28125 L 341.847656 234.925781 L 175.757812 234.925781 Z M 175.757812 209.28125 " fill-opacity="1" fill-rule="nonzero"/></g><g clip-path="url(#48335adc3c)"><path fill="#7939f9" d="M 331.285156 239.621094 L 355.476562 239.621094 L 355.476562 273.730469 L 331.285156 273.730469 Z M 331.285156 239.621094 " fill-opacity="1" fill-rule="nonzero"/></g><g clip-path="url(#c4112fba17)"><path fill="#7939f9" d="M 322.144531 226.324219 L 346.335938 226.324219 L 346.335938 260.433594 L 322.144531 260.433594 Z M 322.144531 226.324219 " fill-opacity="1" fill-rule="nonzero"/></g><g clip-path="url(#e0c347ac1d)"><path fill="#7939f9" d="M 302.609375 140.925781 L 341.882812 140.925781 L 341.882812 184.957031 L 302.609375 184.957031 Z M 302.609375 140.925781 " fill-opacity="1" fill-rule="nonzero"/></g><g clip-path="url(#1212950594)"><path fill="#7939f9" d="M 294.808594 178.09375 L 337.5 178.09375 L 337.5 222.117188 L 294.808594 222.117188 Z M 294.808594 178.09375 " fill-opacity="1" fill-rule="nonzero"/></g><g clip-path="url(#a52feccc02)"><path fill="#7939f9" d="M 288.597656 195.609375 L 331.261719 195.609375 L 331.261719 217.410156 L 288.597656 217.410156 Z M 288.597656 195.609375 " fill-opacity="1" fill-rule="nonzero"/></g><g clip-path="url(#c1141dd1bd)"><path fill="#7939f9" d="M 171.949219 269.421875 L 322.191406 269.421875 L 322.191406 309.609375 L 171.949219 309.609375 Z M 171.949219 269.421875 " fill-opacity="1" fill-rule="nonzero"/></g><g clip-path="url(#56905c1241)"><path fill="#7939f9" d="M 316.15625 258.925781 L 330.335938 258.925781 L 330.335938 299.140625 L 316.15625 299.140625 Z M 316.15625 258.925781 " fill-opacity="1" fill-rule="nonzero"/></g><g clip-path="url(#8f31d69099)"><path fill="#7939f9" d="M 183.980469 308.117188 L 327.105469 308.117188 L 327.105469 324.816406 L 183.980469 324.816406 Z M 183.980469 308.117188 " fill-opacity="1" fill-rule="nonzero"/></g><g clip-path="url(#1d1b123f9b)"><path fill="#7939f9" d="M 195.980469 320.117188 L 316.179688 320.117188 L 316.179688 337.5 L 195.980469 337.5 Z M 195.980469 320.117188 " fill-opacity="1" fill-rule="nonzero"/></g><g clip-path="url(#fe95ecd087)"><path fill="#7939f9" d="M 216.628906 332.867188 L 315.390625 332.867188 L 315.390625 349.566406 L 216.628906 349.566406 Z M 216.628906 332.867188 " fill-opacity="1" fill-rule="nonzero"/></g><g clip-path="url(#5cf9a8e7ef)"><path fill="#7939f9" d="M 239.203125 344.117188 L 312.523438 344.117188 L 312.523438 360.816406 L 239.203125 360.816406 Z M 239.203125 344.117188 " fill-opacity="1" fill-rule="nonzero"/></g><g clip-path="url(#cc61f24522)"><path fill="#7939f9" d="M 270.683594 356.117188 L 305.789062 356.117188 L 305.789062 368.738281 L 270.683594 368.738281 Z M 270.683594 356.117188 " fill-opacity="1" fill-rule="nonzero"/></g><path fill="#ffffff" d="M 183.121094 81.191406 C 184.289062 82.359375 185.746094 82.945312 187.207031 82.945312 L 222.253906 82.945312 C 223.714844 82.945312 225.175781 82.359375 226.34375 81.191406 L 235.980469 71.554688 C 238.902344 73.015625 242.113281 73.890625 245.621094 73.890625 C 257.007812 73.890625 266.0625 64.835938 266.0625 53.445312 C 266.0625 42.054688 257.007812 33.003906 245.621094 33.003906 C 234.230469 33.003906 225.175781 42.054688 225.175781 53.445312 C 225.175781 56.949219 226.050781 60.164062 227.511719 63.085938 L 219.917969 71.261719 L 189.542969 71.261719 L 169.683594 51.402344 L 169.683594 12.851562 L 186.625 12.851562 C 187.207031 12.851562 187.792969 13.140625 188.375 12.851562 C 240.363281 10.804688 293.808594 34.460938 319.800781 82.945312 L 300.234375 82.945312 C 297.605469 74.472656 290.011719 68.339844 280.664062 68.339844 C 269.277344 68.339844 260.222656 77.394531 260.222656 88.785156 C 260.222656 98.128906 266.355469 105.722656 274.824219 108.351562 L 274.824219 161.800781 L 231.015625 161.800781 C 227.804688 161.800781 225.175781 164.425781 225.175781 167.640625 L 225.175781 199.765625 L 213.492188 199.765625 L 213.492188 164.71875 C 213.492188 162.96875 212.617188 161.507812 211.449219 160.339844 L 193.050781 144.566406 L 193.050781 106.308594 L 216.996094 106.308594 L 224.882812 114.195312 C 223.421875 117.113281 222.546875 120.328125 222.546875 123.832031 C 222.546875 135.222656 231.601562 144.277344 242.992188 144.277344 C 254.378906 144.277344 263.433594 135.222656 263.433594 123.832031 C 263.433594 112.441406 254.378906 103.386719 242.992188 103.386719 C 239.484375 103.386719 236.273438 104.265625 233.351562 105.722656 L 223.714844 96.085938 C 222.253906 95.210938 220.792969 94.625 219.335938 94.625 L 187.207031 94.625 C 183.996094 94.625 181.367188 97.253906 181.367188 100.46875 L 181.367188 147.195312 C 181.367188 148.949219 182.242188 150.410156 183.410156 151.578125 L 201.8125 167.347656 L 201.8125 199.765625 L 178.445312 199.765625 C 176.984375 199.765625 175.527344 200.351562 174.359375 201.519531 L 127.628906 248.246094 C 126.460938 249.414062 125.875 250.875 125.875 252.335938 L 125.875 299.941406 C 117.40625 302.570312 111.273438 310.164062 111.273438 319.507812 C 111.273438 330.898438 120.328125 339.953125 131.71875 339.953125 C 143.109375 339.953125 152.160156 330.898438 152.160156 319.507812 C 152.160156 310.164062 146.027344 302.570312 137.558594 299.941406 L 137.558594 254.671875 L 180.78125 211.449219 L 286.507812 211.449219 C 288.84375 211.449219 290.886719 210.28125 291.765625 208.234375 L 309.289062 173.1875 C 309.578125 172.3125 309.871094 171.4375 309.871094 170.5625 L 309.871094 150.117188 L 335.574219 150.117188 L 335.574219 174.066406 L 327.980469 190.710938 C 327.394531 192.171875 327.394531 193.632812 327.6875 195.09375 L 353.386719 263.726562 C 353.386719 264.019531 353.386719 264.3125 353.386719 264.601562 C 353.097656 264.894531 353.097656 264.894531 352.804688 264.894531 L 327.6875 264.894531 C 325.933594 264.894531 324.183594 265.769531 323.015625 267.230469 C 321.847656 268.691406 321.554688 270.734375 322.136719 272.488281 L 329.148438 292.933594 L 315.710938 297.605469 C 313.960938 298.1875 312.5 299.648438 311.914062 301.402344 C 311.332031 303.152344 311.625 305.199219 312.792969 306.660156 L 321.554688 318.632812 L 313.960938 324.472656 C 312.5 325.640625 311.625 327.394531 311.625 329.148438 L 311.625 344.042969 C 311.625 350.757812 308.121094 357.183594 302.277344 360.398438 C 299.648438 362.148438 296.4375 363.027344 293.222656 363.027344 C 268.984375 363.316406 175.527344 332.652344 175.527344 281.542969 L 175.527344 269.277344 C 175.527344 266.0625 172.898438 263.433594 169.683594 263.433594 C 166.472656 263.433594 163.84375 266.0625 163.84375 269.277344 L 163.84375 281.542969 C 163.84375 343.75 268.691406 375 293.515625 375 C 298.773438 375 304.03125 373.539062 308.410156 370.910156 C 317.757812 365.363281 323.304688 355.433594 323.304688 344.335938 L 323.304688 332.066406 L 332.945312 324.472656 C 335.28125 322.429688 335.863281 318.925781 334.113281 316.589844 L 326.8125 306.367188 L 338.492188 302.277344 C 341.414062 301.109375 343.164062 297.898438 341.996094 294.976562 L 335.863281 276.578125 L 352.804688 276.578125 C 356.890625 276.578125 360.6875 274.53125 363.027344 271.320312 C 365.363281 267.816406 365.945312 263.433594 364.484375 259.636719 L 339.660156 193.339844 L 346.671875 177.863281 C 346.960938 176.984375 347.253906 176.402344 347.253906 175.527344 L 347.253906 143.398438 C 345.503906 99.300781 327.394531 62.207031 295.269531 35.921875 C 266.0625 11.972656 228.386719 0 188.375 1.167969 C 188.085938 1.167969 187.5 1.167969 187.207031 1.167969 L 163.84375 1.167969 C 160.628906 1.167969 158.003906 3.796875 158.003906 7.007812 L 158.003906 53.738281 C 158.003906 55.199219 158.585938 56.660156 159.753906 57.828125 Z M 245.621094 44.976562 C 250.585938 44.976562 254.378906 48.773438 254.378906 53.738281 C 254.378906 58.703125 250.585938 62.5 245.621094 62.5 C 240.652344 62.5 236.859375 58.703125 236.859375 53.738281 C 236.859375 48.773438 240.652344 44.976562 245.621094 44.976562 Z M 242.699219 115.070312 C 247.664062 115.070312 251.460938 118.867188 251.460938 123.832031 C 251.460938 128.796875 247.664062 132.59375 242.699219 132.59375 C 237.734375 132.59375 233.9375 128.796875 233.9375 123.832031 C 233.9375 118.867188 237.734375 115.070312 242.699219 115.070312 Z M 140.480469 319.507812 C 140.480469 324.472656 136.683594 328.269531 131.71875 328.269531 C 126.753906 328.269531 122.957031 324.472656 122.957031 319.507812 C 122.957031 314.542969 126.753906 310.746094 131.71875 310.746094 C 136.683594 310.746094 140.480469 314.542969 140.480469 319.507812 Z M 271.902344 88.785156 C 271.902344 83.820312 275.699219 80.023438 280.664062 80.023438 C 285.628906 80.023438 289.425781 83.820312 289.425781 88.785156 C 289.425781 93.75 285.628906 97.546875 280.664062 97.546875 C 275.699219 97.546875 271.902344 93.75 271.902344 88.785156 Z M 335.28125 138.433594 L 304.03125 138.433594 C 300.816406 138.433594 298.1875 141.0625 298.1875 144.277344 L 298.1875 169.101562 L 283.003906 199.765625 L 236.859375 199.765625 L 236.859375 173.480469 L 280.664062 173.480469 C 283.878906 173.480469 286.507812 170.851562 286.507812 167.640625 L 286.507812 108.351562 C 293.222656 106.308594 298.1875 101.050781 300.234375 94.625 L 325.351562 94.625 C 330.609375 107.769531 334.113281 122.371094 335.28125 138.433594 Z M 335.28125 138.433594 " fill-opacity="1" fill-rule="nonzero"/><path fill="#ffffff" d="M 26.578125 41.179688 L 26.578125 91.707031 C 26.578125 93.457031 27.453125 95.210938 28.621094 96.378906 L 60.746094 122.078125 C 61.039062 122.371094 61.332031 122.371094 61.625 122.664062 L 61.625 185.164062 C 61.625 186.625 62.207031 187.792969 63.085938 188.960938 L 79.148438 207.652344 L 79.148438 256.132812 C 70.675781 258.761719 64.542969 266.355469 64.542969 275.699219 C 64.542969 287.089844 73.597656 296.144531 84.988281 296.144531 C 96.378906 296.144531 105.433594 287.089844 105.433594 275.699219 C 105.433594 266.355469 99.300781 258.761719 90.828125 256.132812 L 90.828125 205.609375 C 90.828125 204.148438 90.246094 202.980469 89.371094 201.8125 L 73.304688 183.121094 L 73.304688 54.90625 L 102.511719 71.554688 L 102.511719 83.527344 C 94.042969 86.15625 87.910156 93.75 87.910156 103.097656 C 87.910156 114.484375 96.960938 123.539062 108.351562 123.539062 C 119.742188 123.539062 128.796875 114.484375 128.796875 103.097656 C 128.796875 93.75 122.664062 86.15625 114.195312 83.527344 L 114.195312 68.339844 C 114.195312 66.296875 113.027344 64.253906 111.273438 63.375 L 70.386719 40.011719 C 68.632812 38.84375 66.296875 38.84375 64.542969 40.011719 C 62.792969 41.179688 61.625 42.933594 61.625 44.976562 L 61.625 107.769531 L 38.257812 88.785156 L 38.257812 41.179688 C 46.730469 38.550781 52.863281 30.957031 52.863281 21.613281 C 52.863281 10.222656 43.808594 1.167969 32.417969 1.167969 C 21.027344 1.167969 11.972656 10.222656 11.972656 21.613281 C 11.972656 30.957031 18.109375 38.550781 26.578125 41.179688 Z M 93.75 275.699219 C 93.75 280.664062 89.953125 284.460938 84.988281 284.460938 C 80.023438 284.460938 76.226562 280.664062 76.226562 275.699219 C 76.226562 270.734375 80.023438 266.9375 84.988281 266.9375 C 89.953125 266.9375 93.75 270.734375 93.75 275.699219 Z M 117.113281 103.386719 C 117.113281 108.351562 113.316406 112.148438 108.351562 112.148438 C 103.386719 112.148438 99.589844 108.351562 99.589844 103.386719 C 99.589844 98.421875 103.386719 94.625 108.351562 94.625 C 113.316406 94.625 117.113281 98.421875 117.113281 103.386719 Z M 32.417969 12.851562 C 37.382812 12.851562 41.179688 16.648438 41.179688 21.613281 C 41.179688 26.578125 37.382812 30.375 32.417969 30.375 C 27.453125 30.375 23.65625 26.578125 23.65625 21.613281 C 23.65625 16.648438 27.453125 12.851562 32.417969 12.851562 Z M 32.417969 12.851562 " fill-opacity="1" fill-rule="nonzero"/><path fill="#ffffff" d="M 158.003906 94.042969 L 158.003906 179.613281 L 114.195312 223.421875 L 114.195312 181.367188 C 122.664062 178.738281 128.796875 171.144531 128.796875 161.800781 C 128.796875 150.410156 119.742188 141.355469 108.351562 141.355469 C 96.960938 141.355469 87.910156 150.410156 87.910156 161.800781 C 87.910156 171.144531 94.042969 178.738281 102.511719 181.367188 L 102.511719 237.734375 C 102.511719 240.070312 103.972656 242.113281 106.015625 242.992188 C 106.890625 243.574219 107.476562 243.574219 108.351562 243.574219 C 109.8125 243.574219 111.273438 242.992188 112.441406 241.824219 L 167.933594 186.332031 C 169.101562 185.164062 169.683594 183.703125 169.683594 182.242188 L 169.683594 91.707031 C 169.683594 90.246094 169.101562 88.785156 167.933594 87.617188 L 146.320312 66.003906 L 146.320312 21.613281 C 146.320312 18.398438 143.691406 15.769531 140.480469 15.769531 C 137.265625 15.769531 134.636719 18.398438 134.636719 21.613281 L 134.636719 68.339844 C 134.636719 69.800781 135.222656 71.261719 136.390625 72.429688 Z M 108.351562 170.5625 C 103.386719 170.5625 99.589844 166.765625 99.589844 161.800781 C 99.589844 156.835938 103.386719 153.039062 108.351562 153.039062 C 113.316406 153.039062 117.113281 156.835938 117.113281 161.800781 C 117.113281 166.765625 113.316406 170.5625 108.351562 170.5625 Z M 108.351562 170.5625 " fill-opacity="1" fill-rule="nonzero"/><path fill="#ffffff" d="M 9.054688 234.8125 C 9.054688 246.203125 18.109375 255.257812 29.496094 255.257812 C 40.886719 255.257812 49.941406 246.203125 49.941406 234.8125 C 49.941406 225.46875 43.808594 217.875 35.339844 215.246094 L 35.339844 175.527344 C 43.808594 172.898438 49.941406 165.304688 49.941406 155.957031 C 49.941406 144.566406 40.886719 135.515625 29.496094 135.515625 C 18.109375 135.515625 9.054688 144.566406 9.054688 155.957031 C 9.054688 165.304688 15.1875 172.898438 23.65625 175.527344 L 23.65625 215.246094 C 15.1875 217.875 9.054688 225.46875 9.054688 234.8125 Z M 20.734375 155.957031 C 20.734375 150.992188 24.53125 147.195312 29.496094 147.195312 C 34.460938 147.195312 38.257812 150.992188 38.257812 155.957031 C 38.257812 160.921875 34.460938 164.71875 29.496094 164.71875 C 24.53125 164.71875 20.734375 160.921875 20.734375 155.957031 Z M 29.496094 226.050781 C 34.460938 226.050781 38.257812 229.847656 38.257812 234.8125 C 38.257812 239.777344 34.460938 243.574219 29.496094 243.574219 C 24.53125 243.574219 20.734375 239.777344 20.734375 234.8125 C 20.734375 229.847656 24.53125 226.050781 29.496094 226.050781 Z M 29.496094 226.050781 " fill-opacity="1" fill-rule="nonzero"/></svg>